<svg width="40" height="40" viewBox="0 0 40 40" fill="none" xmlns="http://www.w3.org/2000/svg">
<rect width="40" height="40" rx="7" fill="#FF652E"/>
<path d="M27.7031 18.5469C26.9551 18.5411 26.222 18.7568 25.5964 19.167C24.9708 19.5771 24.4805 20.1633 24.1875 20.8515C23.8945 20.1633 23.4042 19.5771 22.7786 19.167C22.153 18.7568 21.4199 18.5411 20.6719 18.5469C19.7565 18.5363 18.8739 18.8873 18.2157 19.5236C17.5574 20.1599 17.1768 21.0301 17.1562 21.9453C17.1532 22.3028 17.2059 22.6587 17.3125 23C18.0937 26.0078 21.6875 29.0156 24.1875 31.0469C26.6484 29.0156 30.2422 25.7734 31.0234 23.0781C31.0738 22.9249 31.113 22.7682 31.1406 22.6094V22.5312C31.1773 22.377 31.2034 22.2203 31.2187 22.0625C31.224 21.5994 31.1366 21.1398 30.9618 20.7109C30.787 20.282 30.5282 19.8924 30.2007 19.5649C29.8732 19.2374 29.4836 18.9786 29.0547 18.8038C28.6258 18.629 28.1663 18.5416 27.7031 18.5469Z" fill="white"/>
<path d="M15.5938 22.0234C15.5898 21.9584 15.5898 21.8932 15.5938 21.8281C15.6445 20.519 16.203 19.2812 17.151 18.3769C18.099 17.4727 19.3619 16.9732 20.6719 16.9844C21.9583 16.9903 23.2021 17.4464 24.1875 18.2734C24.6851 17.851 25.2538 17.5203 25.8672 17.2969C26.0365 16.9431 26.1801 16.5776 26.2969 16.2031C26.3646 15.9858 26.4168 15.7638 26.4531 15.5391V15.4609C26.4811 15.2407 26.4942 15.0189 26.4922 14.7969C26.5077 14.1729 26.3996 13.552 26.1739 12.9701C25.9482 12.3882 25.6095 11.8567 25.1773 11.4063C24.7451 10.956 24.2281 10.5957 23.6559 10.3463C23.0837 10.0969 22.4678 9.96325 21.8438 9.95312C20.8323 9.95947 19.8457 10.2677 19.0106 10.8384C18.1754 11.4091 17.5297 12.2162 17.1562 13.1562C16.7828 12.2162 16.1371 11.4091 15.3019 10.8384C14.4668 10.2677 13.4802 9.95947 12.4688 9.95312C11.2354 9.96315 10.0548 10.4549 9.179 11.3234C8.30321 12.1919 7.8016 13.3683 7.78125 14.6016V14.6797C7.78629 15.1705 7.8653 15.6577 8.01562 16.125C9.07031 20.1875 13.8359 24.3281 17.1562 27.1406L17.5469 26.7891C16.7723 25.8134 16.1891 24.7001 15.8281 23.5078C15.6757 23.0277 15.5966 22.5272 15.5938 22.0234Z" fill="white"/>
</svg>
